<svg xmlns="http://www.w3.org/2000/svg" viewBox="130 -60 420 120" width="100%" height="100%">
  <defs>
    <!-- hex pattern grey -->
    <pattern id="hex-grey" width="34.64" height="60" patternUnits="userSpaceOnUse" patternTransform="scale(0.55)">
      <path fill="none" stroke="none" stroke-width="3" d="M34.64 15L17.32 5 0 15v20l17.32 10 17.32-10V15z M0 45l17.32 10 17.32-10M17.32 55L17.32 65M17.32 5L17.32 -5"/>
    </pattern>

    <!-- hex pattern background -->
    <pattern id="hex-white" width="34.64" height="60" patternUnits="userSpaceOnUse" patternTransform="scale(0.55)">
      <path fill="none" stroke="none" stroke-width="3" d="M34.64 15L17.32 5 0 15v20l17.32 10 17.32-10V15z M0 45l17.32 10 17.32-10M17.32 55L17.32 65M17.32 5L17.32 -5"/>
    </pattern>

    <path id="pinPath" fill-rule="evenodd" clip-rule="evenodd" d="M 0 160 C 40 120 80 60 80 0 A 80 80 0 1 0 -80 0 C -80 60 -40 120 0 160 Z M 0 -62 A 62 62 0 1 1 0 62 A 62 62 0 1 1 0 -62 Z"/>
    
    <clipPath id="pinClip">
      <use href="#pinPath" />
    </clipPath>

    <radialGradient id="fadeGridGrey" cx="-30" cy="110" r="90" gradientUnits="userSpaceOnUse">
       <stop stop-color="white" stop-opacity="1" offset="0%"/>
       <stop stop-color="white" stop-opacity="0" offset="100%"/>
    </radialGradient>
    <mask id="greyHexMask">
      <rect x="-150" y="0" width="150" height="200" fill="url(#fadeGridGrey)"/>
    </mask>

    <linearGradient id="fadeGridWhite" x1="0" y1="160" x2="0" y2="40" gradientUnits="userSpaceOnUse">
      <stop stop-color="white" stop-opacity="0.8" offset="0%"/>
      <stop stop-color="white" stop-opacity="0" offset="100%"/>
    </linearGradient>
    <mask id="whiteHexMask">
      <rect x="-80" y="-80" width="160" height="250" fill="url(#fadeGridWhite)"/>
    </mask>
  </defs>

  

  <!-- ICON -->
  

  <!-- TEXT -->
    <g transform="translate(0,-10)">
    <text x="140" y="0" font-family="'Montserrat', 'Century Gothic', 'Helvetica Neue', Arial, sans-serif" font-size="64" font-weight="700" fill="#263678" letter-spacing="1.5">CHERITH</text>
    <text x="140" y="38" font-family="'Montserrat', 'Century Gothic', 'Helvetica Neue', Arial, sans-serif" font-size="34" font-weight="400" fill="#E31B23" letter-spacing="0.5">Informatics &amp; Mapping Ltd</text>
  </g>
</svg>